<?xml version="1.0" standalone="no"?>
<!DOCTYPE svg PUBLIC "-//W3C//DTD SVG 20010904//EN"
 "http://www.w3.org/TR/2001/REC-SVG-20010904/DTD/svg10.dtd">
<svg version="1.0" xmlns="http://www.w3.org/2000/svg"
 width="1080.000000pt" height="1080.000000pt" viewBox="0 0 1080.000000 1080.000000"
 preserveAspectRatio="xMidYMid meet">
<metadata>
Created by potrace 1.14, written by Peter Selinger 2001-2017
</metadata>
<g transform="translate(0.000000,1080.000000) scale(0.100000,-0.100000)"
fill="#000000" stroke="none">
<path d="M4875 9093 c-216 -20 -581 -155 -792 -293 -114 -75 -267 -223 -334
-323 -136 -203 -211 -397 -234 -601 -24 -211 -20 -383 11 -507 55 -224 100
-360 160 -491 24 -54 44 -106 44 -116 0 -10 -11 -24 -26 -30 -47 -22 -66 -103
-43 -187 13 -48 89 -205 100 -205 4 0 10 8 12 18 3 9 5 2 6 -15 0 -18 15 -63
31 -101 28 -62 34 -68 63 -70 41 -3 60 -28 53 -70 -4 -25 0 -37 15 -50 11 -9
27 -41 35 -70 11 -36 24 -58 42 -70 39 -24 49 -40 67 -101 37 -123 159 -389
205 -446 25 -31 48 -170 77 -465 12 -127 85 -230 248 -350 63 -47 152 -112
198 -145 121 -89 182 -121 270 -138 87 -18 161 -51 187 -84 23 -29 30 -29 82
5 24 16 76 43 117 61 73 32 202 123 251 176 29 31 204 186 259 228 71 54 154
143 172 182 15 35 17 68 16 255 -2 198 0 219 19 260 126 275 160 393 168 596
2 28 6 56 10 62 4 6 9 33 13 60 4 36 1 51 -10 60 -13 11 -17 4 -27 -58 -6 -38
-15 -70 -20 -70 -4 0 -13 -13 -20 -30 -8 -19 -20 -30 -32 -30 -10 0 -16 5 -13
10 4 6 12 7 18 3 7 -4 6 0 -2 10 -7 9 -17 14 -23 11 -5 -3 -15 0 -23 6 -17 14
-45 -2 -45 -27 0 -8 -5 -11 -11 -8 -7 5 -6 12 4 23 14 17 12 52 -3 52 -4 0 -6
9 -3 20 4 16 -1 21 -27 27 -20 3 -35 13 -37 25 -6 19 -18 24 -28 9 -3 -5 -1
-12 5 -16 17 -11 11 -25 -16 -35 -14 -6 -22 -15 -19 -21 4 -6 13 -8 20 -5 12
4 23 -9 30 -36 2 -5 4 -9 5 -10 6 -6 7 -53 1 -58 -15 -12 -49 -88 -54 -123 -3
-20 -19 -56 -34 -80 -16 -23 -32 -50 -36 -59 -10 -27 -30 -22 -21 5 21 65 -18
190 -81 260 -20 23 -133 74 -140 65 -1 -2 -7 -11 -12 -22 -14 -25 -84 -31
-124 -10 -17 8 -32 14 -34 12 -4 -4 -8 -30 -6 -44 2 -22 75 -69 106 -69 25 0
30 -4 30 -25 0 -17 -5 -24 -15 -21 -8 2 -68 7 -134 12 -104 7 -124 6 -166 -11
-51 -20 -109 -15 -137 13 -12 12 -12 16 1 27 13 10 22 10 46 0 26 -11 33 -10
48 3 9 8 29 19 45 22 15 4 30 11 33 16 3 5 20 9 38 9 43 0 101 61 86 91 -13
23 -13 109 0 109 6 0 10 14 10 30 0 27 -3 30 -30 30 -21 0 -38 9 -57 30 -33
38 -71 39 -113 3 -38 -32 -97 -33 -139 -4 -52 36 -176 47 -239 20 l-47 -20
-17 21 c-34 42 -17 125 40 194 41 50 78 149 113 303 19 85 24 95 64 132 25 23
52 41 61 41 38 0 85 -52 129 -142 73 -147 143 -255 190 -294 52 -42 85 -105
85 -160 0 -61 10 -87 26 -73 17 14 68 -8 103 -45 14 -14 29 -26 35 -26 6 0 28
-11 48 -25 20 -14 44 -25 53 -25 8 0 23 -9 32 -20 10 -11 23 -20 30 -20 7 0
13 -4 13 -9 0 -13 64 -20 72 -8 4 6 2 17 -4 24 -14 17 4 17 21 1 10 -11 10 -7
0 17 -7 17 -14 32 -16 34 -2 3 -14 -6 -28 -19 -14 -13 -28 -20 -32 -16 -4 4
-3 10 2 14 9 6 11 28 6 56 0 5 -7 3 -15 -3 -11 -9 -14 -9 -12 2 1 16 -62 97
-76 97 -13 0 -68 56 -68 69 0 5 -6 14 -13 18 -8 4 -22 21 -32 36 -10 15 -32
35 -49 45 l-31 16 135 17 c190 23 311 63 363 117 54 56 69 119 75 310 5 185
16 215 39 106 7 -32 24 -106 37 -164 14 -58 28 -150 32 -205 8 -120 16 -143
33 -92 10 29 10 63 0 153 -11 109 -9 202 7 350 l6 61 -30 -5 c-28 -4 -32 -1
-37 24 -4 16 -9 37 -11 46 -6 20 30 42 57 35 10 -3 23 0 28 7 5 6 16 67 25
136 19 154 23 785 6 853 -32 120 -168 304 -260 351 -25 12 -77 32 -117 44 -47
15 -74 28 -77 40 -8 23 -100 107 -146 131 -19 10 -64 34 -100 51 -36 18 -79
45 -96 60 -17 15 -71 42 -120 59 -56 20 -106 47 -134 70 -56 47 -91 65 -155
80 -61 14 -262 42 -284 39 -9 -1 -34 -3 -56 -5z m1018 -1151 c18 -20 46 -121
67 -237 15 -90 51 -185 101 -266 46 -75 129 -241 129 -258 0 -15 -94 -15 -122
0 -12 6 -31 23 -43 37 -17 20 -39 29 -91 39 -105 19 -223 20 -264 1 -19 -9
-51 -19 -70 -23 -39 -7 -85 -25 -144 -57 -29 -16 -49 -19 -86 -15 -41 5 -51 3
-70 -18 -35 -37 -131 -68 -192 -63 -29 3 -54 11 -56 17 -8 24 -35 41 -65 41
-18 0 -41 6 -52 13 -19 13 -113 46 -145 52 -8 1 -23 -2 -33 -7 -12 -6 -23 -6
-30 0 -7 6 -67 12 -135 15 -67 2 -125 6 -128 9 -7 7 51 63 148 144 57 48 84
64 107 64 21 0 32 6 36 20 6 19 36 37 189 113 32 16 66 37 75 46 10 9 30 26
44 38 15 13 27 30 27 39 0 8 4 12 10 9 5 -3 16 9 24 28 13 31 18 34 67 40 30
4 64 4 75 1 12 -3 36 2 53 10 17 9 31 14 31 10 0 -3 17 4 37 16 21 12 45 23
53 25 66 13 158 40 170 50 8 7 33 17 55 22 58 15 139 47 143 56 7 15 69 7 85
-11z m238 -848 c37 -35 49 -83 56 -215 10 -190 -19 -288 -96 -333 -100 -58
-407 -97 -518 -65 -92 27 -137 102 -217 360 -27 87 -35 148 -16 119 5 -8 10
-26 10 -39 0 -39 42 -111 85 -146 22 -18 69 -48 104 -66 61 -32 71 -34 165
-34 121 0 179 21 184 67 3 26 1 27 -35 25 -31 -2 -38 1 -38 16 0 31 112 81
149 68 20 -8 29 -4 55 23 17 18 31 43 31 56 0 13 13 38 29 55 62 65 -6 101
-124 64 -19 -6 -124 22 -135 37 -7 7 -19 14 -26 14 -23 0 -16 18 9 24 12 2 85
2 162 0 132 -5 141 -6 166 -30z m-1206 -24 c24 -1 27 -3 13 -10 -9 -6 -43 -7
-80 -3 -53 6 -58 8 -33 14 17 4 39 5 50 3 11 -2 34 -4 50 -4z m316 -120 c30
-17 24 -41 -8 -34 -16 3 -49 1 -76 -4 -56 -11 -72 2 -37 30 25 20 90 24 121 8z
m-1379 -25 c-3 -18 -11 -25 -29 -25 -24 0 -24 0 -6 25 23 32 42 32 35 0z
m1985 -21 c4 -14 -10 -32 -31 -36 -25 -4 -31 16 -10 36 17 17 35 17 41 0z
m-897 -294 c-7 -16 -23 -36 -36 -45 -14 -9 -22 -20 -18 -26 3 -6 -1 -18 -9
-27 -9 -9 -19 -30 -23 -46 -18 -73 -250 -116 -459 -84 -44 7 -86 18 -93 25 -7
7 -21 18 -30 25 -17 13 -42 51 -42 64 0 3 11 -1 25 -10 14 -9 30 -14 36 -10 6
3 75 8 153 10 77 2 152 6 166 10 14 3 50 9 80 13 67 8 148 52 210 116 48 49
64 43 40 -15z m-1163 -91 c9 -22 9 -37 1 -54 -16 -36 -28 -20 -28 36 0 56 10
63 27 18z m398 -42 c69 -124 92 -132 372 -131 123 0 223 0 223 -2 0 -1 -26
-12 -57 -25 -64 -25 -78 -41 -74 -80 5 -53 -108 -131 -179 -124 -19 2 -38 4
-42 4 -5 1 -8 7 -8 15 0 10 -19 19 -54 26 -63 13 -72 21 -81 73 -5 27 -12 37
-25 37 -24 0 -60 51 -60 84 0 14 -6 29 -12 33 -19 12 -48 79 -48 109 0 35 19
26 45 -19z m-80 -133 c38 -15 61 -118 31 -143 -8 -7 -31 -10 -52 -8 -55 6 -65
36 -33 105 25 54 27 56 54 46z m649 -410 c8 -21 -1 -34 -25 -34 -24 0 -37 29
-18 41 21 13 36 11 43 -7z m96 6 c0 -5 -2 -10 -4 -10 -3 0 -8 5 -11 10 -3 6
-1 10 4 10 6 0 11 -4 11 -10z m708 -281 c2 -9 -13 -23 -41 -37 -53 -27 -102
-29 -111 -5 -8 21 -1 28 54 47 54 19 94 17 98 -5z m229 -9 c24 -16 47 -30 52
-30 4 0 17 -11 29 -25 12 -14 27 -25 32 -25 14 0 2 -95 -17 -137 -10 -22 -13
-45 -8 -70 6 -33 3 -40 -32 -73 -21 -21 -48 -51 -60 -68 -15 -19 -35 -32 -57
-36 -19 -4 -57 -22 -84 -40 -45 -30 -55 -32 -106 -28 -54 4 -58 6 -76 43 -11
21 -29 44 -40 52 -14 10 -18 20 -13 33 9 26 23 34 57 34 46 0 124 32 133 55
17 39 0 63 -40 56 -5 -1 0 12 10 29 25 43 10 63 -58 73 -29 4 -57 11 -62 16
-8 8 1 41 12 41 3 0 31 16 61 36 30 20 64 38 75 39 11 2 43 15 70 29 28 14 56
26 64 26 7 0 33 -13 58 -30z m-447 -181 c0 -5 -12 -9 -27 -9 -27 1 -27 1 -9
15 19 14 36 12 36 -6z m40 -224 c0 -16 -64 -22 -74 -6 -9 14 5 21 41 21 23 0
33 -5 33 -15z m777 -337 c-3 -8 -6 -5 -6 6 -1 11 2 17 5 13 3 -3 4 -12 1 -19z"/>
<path d="M5150 7716 c0 -2 7 -7 16 -10 8 -3 12 -2 9 4 -6 10 -25 14 -25 6z"/>
<path d="M6442 6998 c-20 -20 -14 -60 18 -115 35 -61 49 -67 51 -20 5 112 -28
176 -69 135z"/>
<path d="M5017 6433 c-4 -3 -7 -11 -7 -17 0 -6 5 -5 12 2 6 6 9 14 7 17 -3 3
-9 2 -12 -2z"/>
<path d="M6352 6415 c0 -16 2 -22 5 -12 2 9 2 23 0 30 -3 6 -5 -1 -5 -18z"/>
<path d="M6355 6353 c4 -10 7 -49 6 -88 -3 -82 12 -80 27 4 8 44 7 59 -5 78
-18 27 -39 31 -28 6z"/>
<path d="M6050 5999 c0 -5 5 -7 10 -4 6 3 10 8 10 11 0 2 -4 4 -10 4 -5 0 -10
-5 -10 -11z"/>
<path d="M6310 4873 c0 -10 14 -76 32 -147 l32 -128 -17 -147 c-44 -369 -77
-599 -91 -633 -21 -49 -21 -69 0 -61 15 5 16 -5 10 -103 -22 -351 -28 -521
-35 -999 l-9 -530 -33 -70 c-41 -87 -107 -192 -168 -266 -25 -31 -62 -77 -81
-102 -19 -24 -66 -68 -105 -96 l-70 -52 -6 58 c-4 32 -10 175 -13 318 -11 448
-34 768 -71 955 -26 138 -35 172 -70 291 -19 65 -35 134 -35 153 0 79 60 160
175 234 38 25 85 58 103 74 37 32 63 35 86 12 18 -17 20 -12 7 14 -4 9 -21 44
-35 77 -15 33 -47 92 -70 130 -53 87 -103 175 -134 238 -30 59 -105 137 -132
137 -16 0 -20 -7 -20 -32 -1 -18 -8 -42 -18 -53 -16 -20 -28 -20 -277 -19
-270 1 -315 5 -295 29 16 19 -5 95 -27 95 -26 0 -91 -80 -138 -170 -43 -84
-133 -313 -181 -460 -25 -78 -31 -111 -12 -72 9 18 19 22 54 22 32 0 46 5 54
19 12 23 55 34 93 23 26 -7 163 -118 234 -189 31 -33 53 -42 53 -23 0 5 6 7
14 4 12 -4 13 -28 10 -122 -7 -181 -22 -270 -52 -322 -157 -269 -233 -493
-291 -862 -37 -229 -48 -352 -61 -648 -6 -129 -15 -239 -19 -243 -15 -15 -127
-21 -136 -7 -4 7 -18 107 -31 224 -12 116 -28 252 -34 301 -11 91 -16 139 -44
390 -21 183 -23 200 -40 400 -32 362 -38 471 -42 799 -5 405 -21 556 -94 906
-25 122 -30 166 -30 288 0 95 -3 141 -10 137 -6 -4 -21 -28 -34 -54 -29 -55
-131 -193 -178 -238 -34 -33 -232 -144 -301 -169 -21 -7 -74 -18 -118 -24 -81
-10 -311 -70 -449 -117 -97 -33 -348 -133 -436 -174 -74 -34 -393 -165 -434
-179 -46 -15 -137 -58 -188 -90 -52 -32 -113 -105 -127 -150 -8 -28 -65 -178
-133 -350 -24 -63 -74 -178 -110 -254 -35 -77 -77 -173 -92 -215 -117 -319
-140 -381 -140 -390 0 -5 -22 -67 -49 -138 -27 -70 -90 -249 -139 -398 -50
-148 -101 -297 -112 -330 -22 -62 -85 -193 -101 -209 -5 -6 -9 -14 -9 -18 0
-6 2676 -6 3545 0 11 0 1088 -2 2393 -4 l2372 -4 0 419 0 419 -31 84 c-17 45
-34 92 -39 103 -5 11 -18 47 -30 80 -12 33 -25 64 -29 70 -4 5 -36 82 -71 170
-34 88 -66 164 -71 170 -5 5 -9 16 -9 24 0 9 -39 94 -87 191 l-87 175 -7 115
c-10 157 -31 245 -85 352 -14 28 -32 73 -40 98 -22 74 -66 127 -131 156 -37
17 -65 24 -84 20 -16 -3 -31 -1 -34 4 -3 6 -17 10 -30 10 -33 0 -145 35 -226
71 -36 16 -71 29 -77 29 -6 0 -42 15 -79 33 -38 18 -90 41 -118 51 -27 10 -54
23 -59 27 -6 5 -16 9 -22 9 -7 0 -42 14 -78 30 -36 17 -80 33 -98 36 -18 3
-52 15 -75 25 -24 10 -60 19 -81 19 -21 0 -42 4 -47 9 -6 5 -28 12 -50 14 -47
6 -148 37 -265 82 -77 30 -137 49 -400 129 -67 20 -99 37 -152 79 -151 121
-272 256 -342 381 -37 65 -56 82 -56 49z"/>
</g>
</svg>
